<?xml version="1.0" encoding="utf-8"?>
<!-- Generator: Adobe Illustrator 26.0.0, SVG Export Plug-In . SVG Version: 6.00 Build 0)  -->
<svg version="1.1" id="Layer_1" xmlns="http://www.w3.org/2000/svg" xmlns:xlink="http://www.w3.org/1999/xlink" x="0px" y="0px"
	 viewBox="0 0 600 600" style="enable-background:new 0 0 600 600;" xml:space="preserve">
<style type="text/css">
	.st0{fill:#1E1E1E;}
	.st1{fill:#424242;}
	.st2{fill:none;}
</style>
<rect class="st0" width="600" height="600"/>
<path id="user" class="st1" d="M432.96,371.75v31.95c0,6.39-5.18,11.56-11.56,11.56H178.6c-6.39,0-11.56-5.18-11.56-11.56v-31.95
	c0.33-6.87,4.49-12.97,10.77-15.78l59.38-31.27c9.64,19.9,29.75,32.6,51.86,32.75h21.9c22.11-0.16,42.22-12.86,51.86-32.76
	l59.38,31.28C428.47,358.78,432.63,364.88,432.96,371.75z M232.3,254.85c3.01,7.18,8.34,13.13,15.15,16.9l7.7,35.28
	c3.48,15.93,17.58,27.29,33.89,27.29h21.91c16.31,0,30.41-11.36,33.89-27.29l7.7-35.28c6.81-3.77,12.15-9.72,15.15-16.9l3.24-8.69
	c3.66-7.27,0.73-16.13-6.54-19.79c-0.26-0.13-0.53-0.26-0.8-0.38v-30.41c0-34.68-23.12-57.81-63.59-57.81s-63.59,23.12-63.59,57.81
	V226c-7.48,3.22-10.93,11.88-7.72,19.36c0.12,0.27,0.24,0.54,0.37,0.8L232.3,254.85z"/>
<path id="picture" class="st2" d="M405.26,199.32H194.74c-7.58,0-13.73,6.15-13.73,13.73v173.91c0,7.58,6.15,13.73,13.73,13.73
	h210.52c7.58,0,13.73-6.15,13.73-13.73V213.05C418.99,205.46,412.84,199.32,405.26,199.32z M391.53,322.88l-43.88-47.87
	c-3.37-3.73-9.12-4.01-12.85-0.64c-0.13,0.11-0.25,0.23-0.37,0.36l-48.95,48.95l49.56,49.56h-25.89l-43.87-43.87
	c-3.57-3.57-9.37-3.57-12.94,0l-43.87,43.87V226.78h183.06V322.88z M227.69,267.96c0-12.13,9.84-21.97,21.97-21.97
	c12.13,0,21.97,9.84,21.97,21.97c0,12.13-9.84,21.97-21.97,21.97h0C237.53,289.93,227.69,280.1,227.69,267.96z"/>
</svg>
