<?xml version="1.0" encoding="utf-8"?>
<!-- Generator: Adobe Illustrator 26.0.0, SVG Export Plug-In . SVG Version: 6.00 Build 0)  -->
<svg version="1.1" id="Layer_1" xmlns="http://www.w3.org/2000/svg" xmlns:xlink="http://www.w3.org/1999/xlink" x="0px" y="0px"
	 viewBox="0 0 600 600" style="enable-background:new 0 0 600 600;" xml:space="preserve">
<style type="text/css">
	.st0{fill:#1E1E1E;}
	.st1{fill:#424242;}
</style>
<rect class="st0" width="600" height="600"/>
<path id="picture" class="st1" d="M405.26,199.32H194.74c-7.58,0-13.73,6.15-13.73,13.73v173.91c0,7.58,6.15,13.73,13.73,13.73
	h210.52c7.58,0,13.73-6.15,13.73-13.73V213.05C418.99,205.46,412.84,199.32,405.26,199.32z M391.53,322.88l-43.88-47.87
	c-3.37-3.73-9.12-4.01-12.85-0.64c-0.13,0.11-0.25,0.23-0.37,0.36l-48.95,48.95l49.56,49.56h-25.89l-43.87-43.87
	c-3.57-3.57-9.37-3.57-12.94,0l-43.87,43.87V226.78h183.06V322.88z M227.69,267.96c0-12.13,9.84-21.97,21.97-21.97
	c12.13,0,21.97,9.84,21.97,21.97c0,12.13-9.84,21.97-21.97,21.97h0C237.53,289.93,227.69,280.1,227.69,267.96z"/>
</svg>
